<?xml version="1.0" encoding="utf-8"?>
<!-- Generator: Adobe Illustrator 23.0.1, SVG Export Plug-In . SVG Version: 6.00 Build 0)  -->
<svg version="1.1" id="Layer_1" xmlns="http://www.w3.org/2000/svg" xmlns:xlink="http://www.w3.org/1999/xlink" x="0px" y="0px"
	 viewBox="0 0 223 70.5" style="enable-background:new 0 0 223 70.5;" xml:space="preserve">
<title>VCC logo</title>
<desc>Created with Sketch.</desc>
<g id="VCC-logo" transform="translate(609.000000, 30.000000)">
	<g id="vccircle" transform="translate(0.000000, 57.936842)">
		<path id="Fill-11" d="M-584.8-85.9l-7.6,67.1h-8.6l-7.6-67.1h7.8l3.8,52v0.4v0.6c-0.1,0.2-0.1,0.4,0,0.7c0.1,0.3,0.2,0.4,0.3,0.4
			c0.1,0,0.2-0.1,0.3-0.4c0.1-0.3,0.1-0.5,0-0.7c-0.1-0.1-0.1-0.1,0-0.2c0-0.1,0-0.2,0-0.3v-0.4l3.8-52L-584.8-85.9L-584.8-85.9z"/>
		<path id="Fill-13" d="M-561.7-24.9c0.5-0.1,0.9-0.4,1.2-0.7c0.5-0.5,0.8-0.9,1-1.3c0.2-0.4,0.3-1.1,0.3-2.2l0.1-3.4h6.9v3.1
			c-0.1,0.5-0.1,1-0.1,1.4c-0.1,0.4-0.1,0.8-0.1,1.3s-0.1,0.9-0.2,1.3c-0.2,0.8-0.5,1.7-1,2.5c-0.5,0.8-0.9,1.5-1.4,1.9
			c-0.4,0.4-1.2,1-2.3,1.7c-1.1,0.7-2.6,1.1-4.4,1.1h-5.9c-1.9,0-3.3-0.4-4.4-1.1s-1.9-1.3-2.3-1.7c-0.4-0.4-0.9-1.1-1.4-1.9
			c-0.5-0.8-0.8-1.7-1-2.5c-0.1-0.4-0.2-0.8-0.3-1.3s-0.1-0.9-0.1-1.3c-0.1-0.4-0.1-0.9,0-1.4v-46c-0.1-0.5-0.1-1,0-1.4
			c0-0.4,0-0.8,0.1-1.2s0.2-0.9,0.3-1.3c0.2-0.8,0.5-1.7,1-2.5c0.5-0.8,0.9-1.5,1.4-1.9c0.4-0.4,1.2-1,2.3-1.7
			c1.1-0.7,2.6-1.1,4.4-1.1h5.6c1.9,0,3.3,0.4,4.4,1.1c1.1,0.7,1.9,1.3,2.3,1.7c0.4,0.4,0.9,1.1,1.4,1.9c0.5,0.8,0.8,1.7,1,2.5
			c0.1,0.4,0.2,0.9,0.2,1.3s0,0.9,0.1,1.2c0,0.4,0,0.9,0.1,1.4v2.9h-6.9V-80h-6.7c-0.5,0.1-1,0.2-1.5,0.3s-0.8,0.3-1.1,0.6
			c-0.5,0.5-0.8,0.9-1,1.3c-0.2,0.4-0.3,1.1-0.3,2.2l-0.1,4.8v37.2l0.1,4.8c0.1,1.1,0.2,1.8,0.3,2.2c0.2,0.4,0.5,0.8,1,1.3
			c0.3,0.3,0.8,0.5,1.4,0.7c0.6,0.1,1.2,0.2,1.7,0.2h2.5C-562.6-24.7-562.2-24.7-561.7-24.9"/>
		<path id="Fill-15" d="M-530.4-24.9c0.5-0.1,0.9-0.4,1.2-0.7c0.5-0.5,0.8-0.9,1-1.3c0.2-0.4,0.3-1.1,0.3-2.2l0.1-3.4h6.9v3.1
			c-0.1,0.5-0.1,1-0.1,1.4c0,0.5,0,0.9,0,1.4s-0.1,0.9-0.2,1.3c-0.2,0.8-0.5,1.7-1,2.5c-0.5,0.8-0.9,1.5-1.4,1.9
			c-0.4,0.4-1.2,1-2.3,1.7c-1.1,0.7-2.6,1.1-4.4,1.1h-5.9c-1.9,0-3.3-0.4-4.4-1.1c-1.1-0.7-1.9-1.3-2.3-1.7
			c-0.4-0.4-0.9-1.1-1.4-1.9c-0.5-0.8-0.8-1.7-1-2.5c-0.1-0.4-0.2-0.8-0.3-1.3c-0.1-0.5-0.1-0.9-0.1-1.3c-0.1-0.4-0.1-0.9,0-1.4v-46
			c-0.1-0.5-0.1-1,0-1.4c0-0.4,0-0.8,0.1-1.2c0.1-0.4,0.2-0.9,0.3-1.3c0.2-0.8,0.5-1.7,1-2.5c0.5-0.8,0.9-1.5,1.4-1.9
			c0.4-0.4,1.2-1,2.3-1.7c1.1-0.7,2.6-1.1,4.4-1.1h5.6c1.9,0,3.3,0.4,4.4,1.1c1.1,0.7,1.9,1.3,2.3,1.7c0.4,0.4,0.9,1.1,1.4,1.9
			c0.5,0.8,0.8,1.7,1,2.5c0.1,0.4,0.2,0.9,0.2,1.3s0,0.9,0.1,1.2c0,0.4,0,0.9,0.1,1.4v2.8h-6.9V-80h-6.7c-0.5,0.1-1,0.2-1.5,0.3
			s-0.8,0.3-1.1,0.6c-0.5,0.5-0.8,0.9-1,1.3c-0.2,0.4-0.3,1.1-0.3,2.2l-0.1,4.8v37.2l0.1,4.8c0.1,1.1,0.2,1.8,0.3,2.2
			c0.2,0.4,0.5,0.8,1,1.3c0.3,0.3,0.8,0.5,1.4,0.7c0.6,0.1,1.2,0.2,1.7,0.2h2.5C-531.3-24.7-530.8-24.7-530.4-24.9"/>
		<path id="Fill-17" d="M-450.9-24.9c0.5-0.1,0.9-0.4,1.2-0.7c0.5-0.5,0.8-0.9,1-1.3c0.2-0.4,0.3-1.1,0.3-2.2l0.1-3.4h6.9v3.1
			c-0.1,0.5-0.1,1-0.1,1.4c-0.1,0.4-0.1,0.8-0.1,1.3s-0.1,0.9-0.2,1.3c-0.2,0.8-0.5,1.7-1,2.5c-0.5,0.8-0.9,1.5-1.4,1.9
			c-0.4,0.4-1.2,1-2.3,1.7s-2.6,1.1-4.4,1.1h-5.9c-1.9,0-3.3-0.4-4.4-1.1s-1.9-1.3-2.3-1.7c-0.4-0.4-0.9-1.1-1.4-1.9
			c-0.5-0.8-0.8-1.7-1-2.5c-0.1-0.4-0.2-0.8-0.3-1.3s-0.1-0.9-0.1-1.3c-0.1-0.4-0.1-0.9,0-1.4v-46c-0.1-0.5-0.1-1,0-1.4
			c0-0.4,0-0.8,0.1-1.2s0.2-0.9,0.3-1.3c0.2-0.8,0.5-1.7,1-2.5c0.5-0.8,0.9-1.5,1.4-1.9c0.4-0.4,1.2-1,2.3-1.7
			c1.1-0.7,2.6-1.1,4.4-1.1h5.6c1.9,0,3.3,0.4,4.4,1.1c1.1,0.7,1.9,1.3,2.3,1.7c0.4,0.4,0.9,1.1,1.4,1.9c0.5,0.8,0.8,1.7,1,2.5
			c0.1,0.4,0.1,0.8,0.1,1.3c0,0.4,0,0.9,0.1,1.2c0,0.4,0,0.9,0.1,1.4v2.9h-6.9V-80h-6.7c-0.5,0.1-1,0.2-1.5,0.3s-0.8,0.3-1.1,0.6
			c-0.5,0.5-0.8,0.9-1,1.3c-0.2,0.4-0.3,1.1-0.3,2.2l-0.1,4.8v37.2l0.1,4.8c0.1,1.1,0.2,1.8,0.3,2.2c0.2,0.4,0.5,0.8,1,1.3
			c0.3,0.3,0.8,0.5,1.4,0.7c0.6,0.1,1.2,0.2,1.7,0.2h2.5C-451.9-24.7-451.4-24.7-450.9-24.9"/>
		<polygon id="Fill-19" points="-435.6,-85.9 -428.8,-85.9 -428.8,-25.4 -413.9,-25.4 -413.9,-18.8 -435.6,-18.8 		"/>
		<polygon id="Fill-21" points="-408.1,-85.9 -386.9,-85.9 -386.9,-79.4 -401.2,-79.4 -401.2,-61.9 -391.9,-61.9 -391.9,-55.4 
			-401.2,-55.4 -401.2,-25.3 -386,-25.3 -386,-18.8 -408.1,-18.8 		"/>
		<path id="Fill-23" d="M-506.9-81.2c0,2.6-2.1,4.7-4.7,4.7s-4.7-2.1-4.7-4.7s2.1-4.7,4.7-4.7S-506.9-83.8-506.9-81.2"/>
		<path id="Fill-25" d="M-511.6-72c-1.3,0-2.5-0.4-3.5-1.1v54.3h6.9v-54.3C-509.2-72.4-510.3-72-511.6-72"/>
		<path id="Fill-27" d="M-483.6-62.1c0,5.3-5.2,5.1-5.2,5.1h-5.2v-22.4h6.4c3.9,0,3.9,3.6,3.9,3.6L-483.6-62.1L-483.6-62.1z
			 M-476.2-23.8v-22.6c0,0-0.6-7.3-7.4-7.3c0,0,6.9,0.6,6.9-5.1v-20.5c0,0,0.2-6.6-8.3-6.6s-15.9,0-15.9,0v67.1h6.9V-49h8
			c0,0,2.8-0.3,2.8,4.5v22c0,0,0,4,4.6,4h5.3v-0.4C-473.2-18.9-476.2-20.5-476.2-23.8L-476.2-23.8z"/>
	</g>
</g>
</svg>
